<?xml version="1.0" encoding="UTF-8" standalone="no"?>
<svg width="299.156mm" height="34.2194mm"
 xmlns="http://www.w3.org/2000/svg" xmlns:xlink="http://www.w3.org/1999/xlink"  version="1.2" baseProfile="tiny">
<title>Qt SVG Document</title>
<desc>Generated with Qt</desc>
<defs>
</defs>
<g fill="none" stroke="black" stroke-width="1" fill-rule="evenodd" stroke-linecap="square" stroke-linejoin="bevel" >

<g fill="none" stroke="#000000" stroke-opacity="1" stroke-width="1" stroke-linecap="square" stroke-linejoin="bevel" transform="matrix(1,0,0,1,0,0)"
font-family="Ubuntu" font-size="11" font-weight="400" font-style="normal" 
>
</g>

<g fill="none" stroke="#000000" stroke-opacity="1" stroke-width="1" stroke-linecap="square" stroke-linejoin="bevel" transform="matrix(1,0,0,1,0,0)"
font-family="Ubuntu" font-size="11" font-weight="400" font-style="normal" 
>
</g>

<g fill="none" stroke="#000000" stroke-opacity="1" stroke-width="1" stroke-linecap="square" stroke-linejoin="bevel" transform="matrix(2.00012,0,0,2.00012,0.00240014,87.9471)"
font-family="Ubuntu" font-size="11" font-weight="400" font-style="normal" 
>
</g>

<g fill="#ffffff" fill-opacity="1" stroke="none" transform="matrix(2.00012,0,0,2.00012,0.00240014,87.9471)"
font-family="Ubuntu" font-size="11" font-weight="400" font-style="normal" 
>
<rect x="-0.0012" y="-43.971" width="423.975" height="48.3359"/>
</g>

<g fill="none" stroke="#000000" stroke-opacity="1" stroke-width="1" stroke-linecap="square" stroke-linejoin="bevel" transform="matrix(2.00012,0,0,2.00012,0.00240014,87.9471)"
font-family="Ubuntu" font-size="11" font-weight="400" font-style="normal" 
>
</g>

<g fill="none" stroke="#000000" stroke-opacity="1" stroke-width="1" stroke-linecap="square" stroke-linejoin="bevel" transform="matrix(2.00012,0,0,2.00012,0.00240014,87.9471)"
font-family="Ubuntu" font-size="11" font-weight="400" font-style="normal" 
>
</g>

<g fill="none" stroke="#000000" stroke-opacity="1" stroke-width="1" stroke-linecap="square" stroke-linejoin="bevel" transform="matrix(2.00012,0,0,2.00012,0.00240014,87.9471)"
font-family="Ubuntu" font-size="11" font-weight="400" font-style="normal" 
>
</g>

<g fill="none" stroke="#000000" stroke-opacity="1" stroke-width="1" stroke-linecap="square" stroke-linejoin="bevel" transform="matrix(2.00012,0,0,2.00012,0.00240014,87.9471)"
font-family="Ubuntu" font-size="11" font-weight="400" font-style="normal" 
>
</g>

<g fill="none" stroke="#000000" stroke-opacity="1" stroke-width="1" stroke-linecap="square" stroke-linejoin="round" transform="matrix(2.00012,0,0,2.00012,0.00240014,87.9471)"
font-family="Ubuntu" font-size="11" font-weight="400" font-style="normal" 
>
<ellipse cx="375.23" cy="-25.971" rx="48.244" ry="17.5"/>
</g>

<g fill="none" stroke="#000000" stroke-opacity="1" stroke-width="1" stroke-linecap="square" stroke-linejoin="bevel" transform="matrix(2.00012,0,0,2.00012,0.00240014,87.9471)"
font-family="Ubuntu" font-size="11" font-weight="400" font-style="normal" 
>
</g>

<g fill="none" stroke="#000000" stroke-opacity="1" stroke-width="1" stroke-linecap="square" stroke-linejoin="bevel" transform="matrix(2.00012,0,0,2.00012,691.44,22.0013)"
font-family="Ubuntu" font-size="11" font-weight="400" font-style="normal" 
>
</g>

<g fill="none" stroke="#000000" stroke-opacity="1" stroke-width="1" stroke-linecap="square" stroke-linejoin="bevel" transform="matrix(2.00012,0,0,2.00012,691.44,22.0013)"
font-family="sans" font-size="11" font-weight="100" font-style="normal" 
>
</g>

<g fill="#000000" fill-opacity="1" stroke="#000000" stroke-opacity="1" stroke-width="1" stroke-linecap="square" stroke-linejoin="round" transform="matrix(2.00012,0,0,2.00012,691.44,22.0013)"
font-family="sans" font-size="11" font-weight="100" font-style="normal" 
>
<path vector-effect="none" fill-rule="nonzero" d="M2.79688,2.98438 L3.70313,2.98438 L0.90625,12.0156 L0,12.0156 L2.79688,2.98438 M5.70313,10.0938 L5.70313,13.2813 L4.70313,13.2813 L4.70313,4.98438 L5.70313,4.98438 L5.70313,5.89063 C5.90104,5.53646 6.15885,5.27344 6.47656,5.10156 C6.79427,4.92969 7.17708,4.84375 7.625,4.84375 C8.35417,4.84375 8.94531,5.13281 9.39844,5.71094 C9.85156,6.28906 10.0781,7.05208 10.0781,8 C10.0781,8.94792 9.85156,9.71094 9.39844,10.2891 C8.94531,10.8672 8.35417,11.1563 7.625,11.1563 C7.17708,11.1563 6.79427,11.0703 6.47656,10.8984 C6.15885,10.7266 5.90104,10.4583 5.70313,10.0938 M9.0625,8 C9.0625,7.27083 8.91146,6.70052 8.60938,6.28906 C8.30729,5.8776 7.89583,5.67188 7.375,5.67188 C6.85417,5.67188 6.44531,5.8776 6.14844,6.28906 C5.85156,6.70052 5.70313,7.27083 5.70313,8 C5.70313,8.72917 5.85156,9.29948 6.14844,9.71094 C6.44531,10.1224 6.85417,10.3281 7.375,10.3281 C7.89583,10.3281 8.30729,10.1224 8.60938,9.71094 C8.91146,9.29948 9.0625,8.72917 9.0625,8 M15.1875,5.90625 C15.0833,5.84375 14.9661,5.79688 14.8359,5.76563 C14.7057,5.73438 14.5625,5.71875 14.4063,5.71875 C13.8438,5.71875 13.4141,5.90104 13.1172,6.26563 C12.8203,6.63021 12.6719,7.15104 12.6719,7.82813 L12.6719,11 L11.6719,11 L11.6719,4.98438 L12.6719,4.98438 L12.6719,5.92188 C12.8698,5.55729 13.1354,5.28646 13.4688,5.10938 C13.8021,4.93229 14.2083,4.84375 14.6875,4.84375 C14.7604,4.84375 14.8359,4.84635 14.9141,4.85156 C14.9922,4.85677 15.0833,4.86979 15.1875,4.89063 L15.1875,5.90625 M21.375,7.75 L21.375,8.23438 L16.8281,8.23438 C16.8698,8.91146 17.0729,9.42708 17.4375,9.78125 C17.8021,10.1354 18.3125,10.3125 18.9688,10.3125 C19.3542,10.3125 19.724,10.2656 20.0781,10.1719 C20.4323,10.0781 20.7865,9.94271 21.1406,9.76563 L21.1406,10.6875 C20.7865,10.8438 20.4219,10.9609 20.0469,11.0391 C19.6719,11.1172 19.2969,11.1563 18.9219,11.1563 C17.9531,11.1563 17.1901,10.8776 16.6328,10.3203 C16.0755,9.76302 15.7969,9.00521 15.7969,8.04688 C15.7969,7.06771 16.0625,6.28906 16.5938,5.71094 C17.125,5.13281 17.8438,4.84375 18.75,4.84375 C19.5521,4.84375 20.1901,5.10417 20.6641,5.625 C21.138,6.14583 21.375,6.85417 21.375,7.75 M20.375,7.45313 C20.375,6.91146 20.2266,6.47917 19.9297,6.15625 C19.6328,5.83333 19.2396,5.67188 18.75,5.67188 C18.1979,5.67188 17.7578,5.82813 17.4297,6.14063 C17.1016,6.45313 16.9115,6.89063 16.8594,7.45313 L20.375,7.45313 M26.9531,5.89063 L26.9531,2.64063 L27.9375,2.64063 L27.9375,11 L26.9531,11 L26.9531,10.0938 C26.7448,10.4583 26.4818,10.7266 26.1641,10.8984 C25.8464,11.0703 25.4635,11.1563 25.0156,11.1563 C24.2969,11.1563 23.7083,10.8672 23.25,10.2891 C22.7917,9.71094 22.5625,8.94792 22.5625,8 C22.5625,7.05208 22.7917,6.28906 23.25,5.71094 C23.7083,5.13281 24.2969,4.84375 25.0156,4.84375 C25.4635,4.84375 25.8464,4.92969 26.1641,5.10156 C26.4818,5.27344 26.7448,5.53646 26.9531,5.89063 M23.5781,8 C23.5781,8.72917 23.7292,9.29948 24.0313,9.71094 C24.3333,10.1224 24.7448,10.3281 25.2656,10.3281 C25.7865,10.3281 26.1979,10.1224 26.5,9.71094 C26.8021,9.29948 26.9531,8.72917 26.9531,8 C26.9531,7.27083 26.8021,6.70052 26.5,6.28906 C26.1979,5.8776 25.7865,5.67188 25.2656,5.67188 C24.7448,5.67188 24.3333,5.8776 24.0313,6.28906 C23.7292,6.70052 23.5781,7.27083 23.5781,8 M29.9531,4.98438 L30.9531,4.98438 L30.9531,11 L29.9531,11 L29.9531,4.98438 M29.9531,2.64063 L30.9531,2.64063 L30.9531,3.89063 L29.9531,3.89063 L29.9531,2.64063 M37.3281,5.21875 L37.3281,6.14063 C37.0573,5.98438 36.7813,5.86719 36.5,5.78906 C36.2188,5.71094 35.9323,5.67188 35.6406,5.67188 C35.0052,5.67188 34.5104,5.875 34.1563,6.28125 C33.8021,6.6875 33.625,7.26042 33.625,8 C33.625,8.72917 33.8021,9.29688 34.1563,9.70313 C34.5104,10.1094 35.0052,10.3125 35.6406,10.3125 C35.9323,10.3125 36.2188,10.276 36.5,10.2031 C36.7813,10.1302 37.0573,10.0156 37.3281,9.85938 L37.3281,10.7656 C37.0573,10.901 36.7734,11 36.4766,11.0625 C36.1797,11.125 35.8646,11.1563 35.5313,11.1563 C34.625,11.1563 33.9063,10.8724 33.375,10.3047 C32.8438,9.73698 32.5781,8.96875 32.5781,8 C32.5781,7.02083 32.8464,6.25 33.3828,5.6875 C33.9193,5.125 34.6563,4.84375 35.5938,4.84375 C35.9063,4.84375 36.2057,4.875 36.4922,4.9375 C36.7786,5 37.0573,5.09375 37.3281,5.21875 M40.0313,3.28125 L40.0313,4.98438 L42.0625,4.98438 L42.0625,5.75 L40.0313,5.75 L40.0313,9.01563 C40.0313,9.50521 40.099,9.82031 40.2344,9.96094 C40.3698,10.1016 40.6406,10.1719 41.0469,10.1719 L42.0625,10.1719 L42.0625,11 L41.0469,11 C40.2865,11 39.7604,10.8568 39.4688,10.5703 C39.1771,10.2839 39.0313,9.76563 39.0313,9.01563 L39.0313,5.75 L38.3125,5.75 L38.3125,4.98438 L39.0313,4.98438 L39.0313,3.28125 L40.0313,3.28125 M43.3594,4.98438 L44.3594,4.98438 L44.3594,11 L43.3594,11 L43.3594,4.98438 M43.3594,2.64063 L44.3594,2.64063 L44.3594,3.89063 L43.3594,3.89063 L43.3594,2.64063 M48.75,5.67188 C48.2188,5.67188 47.7995,5.88021 47.4922,6.29688 C47.1849,6.71354 47.0313,7.28125 47.0313,8 C47.0313,8.71875 47.1823,9.28385 47.4844,9.69531 C47.7865,10.1068 48.2083,10.3125 48.75,10.3125 C49.2708,10.3125 49.6849,10.1068 49.9922,9.69531 C50.2995,9.28385 50.4531,8.71875 50.4531,8 C50.4531,7.28125 50.2995,6.71354 49.9922,6.29688 C49.6849,5.88021 49.2708,5.67188 48.75,5.67188 M48.75,4.84375 C49.6042,4.84375 50.276,5.1224 50.7656,5.67969 C51.2552,6.23698 51.5,7.01042 51.5,8 C51.5,8.97917 51.2552,9.75 50.7656,10.3125 C50.276,10.875 49.6042,11.1563 48.75,11.1563 C47.8854,11.1563 47.2083,10.875 46.7188,10.3125 C46.2292,9.75 45.9844,8.97917 45.9844,8 C45.9844,7.01042 46.2292,6.23698 46.7188,5.67969 C47.2083,5.1224 47.8854,4.84375 48.75,4.84375 M58.125,7.375 L58.125,11 L57.1406,11 L57.1406,7.40625 C57.1406,6.83333 57.0313,6.40625 56.8125,6.125 C56.5938,5.84375 56.2604,5.70313 55.8125,5.70313 C55.2813,5.70313 54.862,5.8724 54.5547,6.21094 C54.2474,6.54948 54.0938,7.01042 54.0938,7.59375 L54.0938,11 L53.0938,11 L53.0938,4.98438 L54.0938,4.98438 L54.0938,5.92188 C54.3229,5.55729 54.599,5.28646 54.9219,5.10938 C55.2448,4.93229 55.6146,4.84375 56.0313,4.84375 C56.7188,4.84375 57.2396,5.05729 57.5938,5.48438 C57.9479,5.91146 58.125,6.54167 58.125,7.375 "/>
</g>

<g fill="none" stroke="#000000" stroke-opacity="1" stroke-width="1" stroke-linecap="square" stroke-linejoin="bevel" transform="matrix(2.00012,0,0,2.00012,691.44,22.0013)"
font-family="sans" font-size="11" font-weight="100" font-style="normal" 
>
</g>

<g fill="none" stroke="#000000" stroke-opacity="1" stroke-width="1" stroke-linecap="square" stroke-linejoin="bevel" transform="matrix(2.00012,0,0,2.00012,691.44,22.0013)"
font-family="Ubuntu" font-size="11" font-weight="400" font-style="normal" 
>
</g>

<g fill="none" stroke="#000000" stroke-opacity="1" stroke-width="1" stroke-linecap="square" stroke-linejoin="bevel" transform="matrix(2.00012,0,0,2.00012,0.00240014,87.9471)"
font-family="Ubuntu" font-size="11" font-weight="400" font-style="normal" 
>
</g>

<g fill="none" stroke="#000000" stroke-opacity="1" stroke-width="1" stroke-linecap="square" stroke-linejoin="bevel" transform="matrix(2.00012,0,0,2.00012,0.00240014,87.9471)"
font-family="Ubuntu" font-size="11" font-weight="400" font-style="normal" 
>
</g>

<g fill="none" stroke="#000000" stroke-opacity="1" stroke-width="1" stroke-linecap="square" stroke-linejoin="bevel" transform="matrix(2.00012,0,0,2.00012,0.00240014,87.9471)"
font-family="Ubuntu" font-size="11" font-weight="400" font-style="normal" 
>
</g>

<g fill="none" stroke="#000000" stroke-opacity="1" stroke-width="1" stroke-linecap="square" stroke-linejoin="round" transform="matrix(2.00012,0,0,2.00012,0.00240014,87.9471)"
font-family="Ubuntu" font-size="11" font-weight="400" font-style="normal" 
>
<ellipse cx="68.244" cy="-25.971" rx="67.7452" ry="17.5"/>
</g>

<g fill="none" stroke="#000000" stroke-opacity="1" stroke-width="1" stroke-linecap="square" stroke-linejoin="bevel" transform="matrix(2.00012,0,0,2.00012,0.00240014,87.9471)"
font-family="Ubuntu" font-size="11" font-weight="400" font-style="normal" 
>
</g>

<g fill="none" stroke="#000000" stroke-opacity="1" stroke-width="1" stroke-linecap="square" stroke-linejoin="bevel" transform="matrix(2.00012,0,0,2.00012,45.6806,22.0013)"
font-family="Ubuntu" font-size="11" font-weight="400" font-style="normal" 
>
</g>

<g fill="none" stroke="#000000" stroke-opacity="1" stroke-width="1" stroke-linecap="square" stroke-linejoin="bevel" transform="matrix(2.00012,0,0,2.00012,45.6806,22.0013)"
font-family="sans" font-size="11" font-weight="100" font-style="normal" 
>
</g>

<g fill="#000000" fill-opacity="1" stroke="#000000" stroke-opacity="1" stroke-width="1" stroke-linecap="square" stroke-linejoin="round" transform="matrix(2.00012,0,0,2.00012,45.6806,22.0013)"
font-family="sans" font-size="11" font-weight="100" font-style="normal" 
>
<path vector-effect="none" fill-rule="nonzero" d="M2.79688,2.98438 L3.70313,2.98438 L0.90625,12.0156 L0,12.0156 L2.79688,2.98438 M9.0625,5.21875 L9.0625,6.14063 C8.79167,5.98438 8.51563,5.86719 8.23438,5.78906 C7.95313,5.71094 7.66667,5.67188 7.375,5.67188 C6.73958,5.67188 6.24479,5.875 5.89063,6.28125 C5.53646,6.6875 5.35938,7.26042 5.35938,8 C5.35938,8.72917 5.53646,9.29688 5.89063,9.70313 C6.24479,10.1094 6.73958,10.3125 7.375,10.3125 C7.66667,10.3125 7.95313,10.276 8.23438,10.2031 C8.51563,10.1302 8.79167,10.0156 9.0625,9.85938 L9.0625,10.7656 C8.79167,10.901 8.50781,11 8.21094,11.0625 C7.91406,11.125 7.59896,11.1563 7.26563,11.1563 C6.35938,11.1563 5.64063,10.8724 5.10938,10.3047 C4.57813,9.73698 4.3125,8.96875 4.3125,8 C4.3125,7.02083 4.58073,6.25 5.11719,5.6875 C5.65365,5.125 6.39063,4.84375 7.32813,4.84375 C7.64063,4.84375 7.9401,4.875 8.22656,4.9375 C8.51302,5 8.79167,5.09375 9.0625,5.21875 M13.5156,7.96875 C12.724,7.96875 12.1745,8.0625 11.8672,8.25 C11.5599,8.4375 11.4063,8.75 11.4063,9.1875 C11.4063,9.53125 11.5208,9.80729 11.75,10.0156 C11.9792,10.224 12.2917,10.3281 12.6875,10.3281 C13.2396,10.3281 13.6797,10.1328 14.0078,9.74219 C14.3359,9.35156 14.5,8.83854 14.5,8.20313 L14.5,7.96875 L13.5156,7.96875 M15.4844,7.5625 L15.4844,11 L14.5,11 L14.5,10.0938 C14.2813,10.4583 14.0026,10.7266 13.6641,10.8984 C13.3255,11.0703 12.9115,11.1563 12.4219,11.1563 C11.8073,11.1563 11.3177,10.9844 10.9531,10.6406 C10.5885,10.2969 10.4063,9.83333 10.4063,9.25 C10.4063,8.57292 10.6328,8.0625 11.0859,7.71875 C11.5391,7.375 12.2188,7.20313 13.125,7.20313 L14.5,7.20313 L14.5,7.10938 C14.5,6.65104 14.3516,6.29688 14.0547,6.04688 C13.7578,5.79688 13.3385,5.67188 12.7969,5.67188 C12.4531,5.67188 12.1172,5.71354 11.7891,5.79688 C11.4609,5.88021 11.1458,6.00521 10.8438,6.17188 L10.8438,5.26563 C11.2083,5.11979 11.5625,5.01302 11.9063,4.94531 C12.25,4.8776 12.5781,4.84375 12.8906,4.84375 C13.7656,4.84375 14.4167,5.06771 14.8438,5.51563 C15.2708,5.96354 15.4844,6.64583 15.4844,7.5625 M22.2031,6.14063 C22.4531,5.69271 22.75,5.36458 23.0938,5.15625 C23.4375,4.94792 23.8438,4.84375 24.3125,4.84375 C24.9375,4.84375 25.4193,5.0625 25.7578,5.5 C26.0964,5.9375 26.2656,6.5625 26.2656,7.375 L26.2656,11 L25.2656,11 L25.2656,7.40625 C25.2656,6.82292 25.1641,6.39323 24.9609,6.11719 C24.7578,5.84115 24.4479,5.70313 24.0313,5.70313 C23.5208,5.70313 23.1172,5.8724 22.8203,6.21094 C22.5234,6.54948 22.375,7.01042 22.375,7.59375 L22.375,11 L21.375,11 L21.375,7.40625 C21.375,6.82292 21.2734,6.39323 21.0703,6.11719 C20.8672,5.84115 20.5521,5.70313 20.125,5.70313 C19.625,5.70313 19.2266,5.8724 18.9297,6.21094 C18.6328,6.54948 18.4844,7.01042 18.4844,7.59375 L18.4844,11 L17.4844,11 L17.4844,4.98438 L18.4844,4.98438 L18.4844,5.92188 C18.7031,5.54688 18.9714,5.27344 19.2891,5.10156 C19.6068,4.92969 19.9792,4.84375 20.4063,4.84375 C20.8438,4.84375 21.2161,4.95313 21.5234,5.17188 C21.8307,5.39063 22.0573,5.71354 22.2031,6.14063 M33.375,7.75 L33.375,8.23438 L28.8281,8.23438 C28.8698,8.91146 29.0729,9.42708 29.4375,9.78125 C29.8021,10.1354 30.3125,10.3125 30.9688,10.3125 C31.3542,10.3125 31.724,10.2656 32.0781,10.1719 C32.4323,10.0781 32.7865,9.94271 33.1406,9.76563 L33.1406,10.6875 C32.7865,10.8438 32.4219,10.9609 32.0469,11.0391 C31.6719,11.1172 31.2969,11.1563 30.9219,11.1563 C29.9531,11.1563 29.1901,10.8776 28.6328,10.3203 C28.0755,9.76302 27.7969,9.00521 27.7969,8.04688 C27.7969,7.06771 28.0625,6.28906 28.5938,5.71094 C29.125,5.13281 29.8438,4.84375 30.75,4.84375 C31.5521,4.84375 32.1901,5.10417 32.6641,5.625 C33.138,6.14583 33.375,6.85417 33.375,7.75 M32.375,7.45313 C32.375,6.91146 32.2266,6.47917 31.9297,6.15625 C31.6328,5.83333 31.2396,5.67188 30.75,5.67188 C30.1979,5.67188 29.7578,5.82813 29.4297,6.14063 C29.1016,6.45313 28.9115,6.89063 28.8594,7.45313 L32.375,7.45313 M38.4688,5.90625 C38.3646,5.84375 38.2474,5.79688 38.1172,5.76563 C37.987,5.73438 37.8438,5.71875 37.6875,5.71875 C37.125,5.71875 36.6953,5.90104 36.3984,6.26563 C36.1016,6.63021 35.9531,7.15104 35.9531,7.82813 L35.9531,11 L34.9531,11 L34.9531,4.98438 L35.9531,4.98438 L35.9531,5.92188 C36.151,5.55729 36.4167,5.28646 36.75,5.10938 C37.0833,4.93229 37.4896,4.84375 37.9688,4.84375 C38.0417,4.84375 38.1172,4.84635 38.1953,4.85156 C38.2734,4.85677 38.3646,4.86979 38.4688,4.89063 L38.4688,5.90625 M42.2344,7.96875 C41.4427,7.96875 40.8932,8.0625 40.5859,8.25 C40.2786,8.4375 40.125,8.75 40.125,9.1875 C40.125,9.53125 40.2396,9.80729 40.4688,10.0156 C40.6979,10.224 41.0104,10.3281 41.4063,10.3281 C41.9583,10.3281 42.3984,10.1328 42.7266,9.74219 C43.0547,9.35156 43.2188,8.83854 43.2188,8.20313 L43.2188,7.96875 L42.2344,7.96875 M44.2031,7.5625 L44.2031,11 L43.2188,11 L43.2188,10.0938 C43,10.4583 42.7214,10.7266 42.3828,10.8984 C42.0443,11.0703 41.6302,11.1563 41.1406,11.1563 C40.526,11.1563 40.0365,10.9844 39.6719,10.6406 C39.3073,10.2969 39.125,9.83333 39.125,9.25 C39.125,8.57292 39.3516,8.0625 39.8047,7.71875 C40.2578,7.375 40.9375,7.20313 41.8438,7.20313 L43.2188,7.20313 L43.2188,7.10938 C43.2188,6.65104 43.0703,6.29688 42.7734,6.04688 C42.4766,5.79688 42.0573,5.67188 41.5156,5.67188 C41.1719,5.67188 40.8359,5.71354 40.5078,5.79688 C40.1797,5.88021 39.8646,6.00521 39.5625,6.17188 L39.5625,5.26563 C39.9271,5.11979 40.2813,5.01302 40.625,4.94531 C40.9688,4.8776 41.2969,4.84375 41.6094,4.84375 C42.4844,4.84375 43.1354,5.06771 43.5625,5.51563 C43.9896,5.96354 44.2031,6.64583 44.2031,7.5625 M50.8125,12.8281 L50.8125,13.5938 L45.0938,13.5938 L45.0938,12.8281 L50.8125,12.8281 M52.7031,10.0938 L52.7031,13.2813 L51.7031,13.2813 L51.7031,4.98438 L52.7031,4.98438 L52.7031,5.89063 C52.901,5.53646 53.1589,5.27344 53.4766,5.10156 C53.7943,4.92969 54.1771,4.84375 54.625,4.84375 C55.3542,4.84375 55.9453,5.13281 56.3984,5.71094 C56.8516,6.28906 57.0781,7.05208 57.0781,8 C57.0781,8.94792 56.8516,9.71094 56.3984,10.2891 C55.9453,10.8672 55.3542,11.1563 54.625,11.1563 C54.1771,11.1563 53.7943,11.0703 53.4766,10.8984 C53.1589,10.7266 52.901,10.4583 52.7031,10.0938 M56.0625,8 C56.0625,7.27083 55.9115,6.70052 55.6094,6.28906 C55.3073,5.8776 54.8958,5.67188 54.375,5.67188 C53.8542,5.67188 53.4453,5.8776 53.1484,6.28906 C52.8516,6.70052 52.7031,7.27083 52.7031,8 C52.7031,8.72917 52.8516,9.29948 53.1484,9.71094 C53.4453,10.1224 53.8542,10.3281 54.375,10.3281 C54.8958,10.3281 55.3073,10.1224 55.6094,9.71094 C55.9115,9.29948 56.0625,8.72917 56.0625,8 M62.5469,5.15625 L62.5469,6.09375 C62.2656,5.94792 61.974,5.84115 61.6719,5.77344 C61.3698,5.70573 61.0573,5.67188 60.7344,5.67188 C60.2448,5.67188 59.8776,5.7474 59.6328,5.89844 C59.388,6.04948 59.2656,6.27083 59.2656,6.5625 C59.2656,6.79167 59.3542,6.97135 59.5313,7.10156 C59.7083,7.23177 60.0625,7.35938 60.5938,7.48438 L60.9219,7.5625 C61.6302,7.70833 62.1302,7.91927 62.4219,8.19531 C62.7135,8.47135 62.8594,8.85417 62.8594,9.34375 C62.8594,9.89583 62.6406,10.3359 62.2031,10.6641 C61.7656,10.9922 61.1563,11.1563 60.375,11.1563 C60.0521,11.1563 59.7161,11.125 59.3672,11.0625 C59.0182,11 58.651,10.9063 58.2656,10.7813 L58.2656,9.76563 C58.6302,9.95313 58.9896,10.0938 59.3438,10.1875 C59.6979,10.2813 60.0521,10.3281 60.4063,10.3281 C60.8646,10.3281 61.2188,10.2474 61.4688,10.0859 C61.7188,9.92448 61.8438,9.70313 61.8438,9.42188 C61.8438,9.15104 61.7552,8.94271 61.5781,8.79688 C61.401,8.65104 61.0052,8.51563 60.3906,8.39063 L60.0469,8.29688 C59.4323,8.17188 58.9896,7.97656 58.7188,7.71094 C58.4479,7.44531 58.3125,7.07813 58.3125,6.60938 C58.3125,6.04688 58.513,5.61198 58.9141,5.30469 C59.3151,4.9974 59.8854,4.84375 60.625,4.84375 C60.9896,4.84375 61.3333,4.86979 61.6563,4.92188 C61.9792,4.97396 62.276,5.05208 62.5469,5.15625 M69.5781,7.75 L69.5781,8.23438 L65.0313,8.23438 C65.0729,8.91146 65.276,9.42708 65.6406,9.78125 C66.0052,10.1354 66.5156,10.3125 67.1719,10.3125 C67.5573,10.3125 67.9271,10.2656 68.2813,10.1719 C68.6354,10.0781 68.9896,9.94271 69.3438,9.76563 L69.3438,10.6875 C68.9896,10.8438 68.625,10.9609 68.25,11.0391 C67.875,11.1172 67.5,11.1563 67.125,11.1563 C66.1563,11.1563 65.3932,10.8776 64.8359,10.3203 C64.2786,9.76302 64,9.00521 64,8.04688 C64,7.06771 64.2656,6.28906 64.7969,5.71094 C65.3281,5.13281 66.0469,4.84375 66.9531,4.84375 C67.7552,4.84375 68.3932,5.10417 68.8672,5.625 C69.3411,6.14583 69.5781,6.85417 69.5781,7.75 M68.5781,7.45313 C68.5781,6.91146 68.4297,6.47917 68.1328,6.15625 C67.8359,5.83333 67.4427,5.67188 66.9531,5.67188 C66.401,5.67188 65.9609,5.82813 65.6328,6.14063 C65.3047,6.45313 65.1146,6.89063 65.0625,7.45313 L68.5781,7.45313 M71.0938,8.625 L71.0938,4.98438 L72.0781,4.98438 L72.0781,8.59375 C72.0781,9.15625 72.1901,9.58073 72.4141,9.86719 C72.638,10.1536 72.9688,10.2969 73.4063,10.2969 C73.9479,10.2969 74.3724,10.1276 74.6797,9.78906 C74.987,9.45052 75.1406,8.98438 75.1406,8.39063 L75.1406,4.98438 L76.125,4.98438 L76.125,11 L75.1406,11 L75.1406,10.0781 C74.901,10.4427 74.6224,10.7135 74.3047,10.8906 C73.987,11.0677 73.6198,11.1563 73.2031,11.1563 C72.5156,11.1563 71.9922,10.9401 71.6328,10.5078 C71.2734,10.0755 71.0938,9.44792 71.0938,8.625 M82.125,5.89063 L82.125,2.64063 L83.1094,2.64063 L83.1094,11 L82.125,11 L82.125,10.0938 C81.9167,10.4583 81.6536,10.7266 81.3359,10.8984 C81.0182,11.0703 80.6354,11.1563 80.1875,11.1563 C79.4688,11.1563 78.8802,10.8672 78.4219,10.2891 C77.9635,9.71094 77.7344,8.94792 77.7344,8 C77.7344,7.05208 77.9635,6.28906 78.4219,5.71094 C78.8802,5.13281 79.4688,4.84375 80.1875,4.84375 C80.6354,4.84375 81.0182,4.92969 81.3359,5.10156 C81.6536,5.27344 81.9167,5.53646 82.125,5.89063 M78.75,8 C78.75,8.72917 78.901,9.29948 79.2031,9.71094 C79.5052,10.1224 79.9167,10.3281 80.4375,10.3281 C80.9583,10.3281 81.3698,10.1224 81.6719,9.71094 C81.974,9.29948 82.125,8.72917 82.125,8 C82.125,7.27083 81.974,6.70052 81.6719,6.28906 C81.3698,5.8776 80.9583,5.67188 80.4375,5.67188 C79.9167,5.67188 79.5052,5.8776 79.2031,6.28906 C78.901,6.70052 78.75,7.27083 78.75,8 M87.4688,5.67188 C86.9375,5.67188 86.5182,5.88021 86.2109,6.29688 C85.9036,6.71354 85.75,7.28125 85.75,8 C85.75,8.71875 85.901,9.28385 86.2031,9.69531 C86.5052,10.1068 86.9271,10.3125 87.4688,10.3125 C87.9896,10.3125 88.4036,10.1068 88.7109,9.69531 C89.0182,9.28385 89.1719,8.71875 89.1719,8 C89.1719,7.28125 89.0182,6.71354 88.7109,6.29688 C88.4036,5.88021 87.9896,5.67188 87.4688,5.67188 M87.4688,4.84375 C88.3229,4.84375 88.9948,5.1224 89.4844,5.67969 C89.974,6.23698 90.2188,7.01042 90.2188,8 C90.2188,8.97917 89.974,9.75 89.4844,10.3125 C88.9948,10.875 88.3229,11.1563 87.4688,11.1563 C86.6042,11.1563 85.9271,10.875 85.4375,10.3125 C84.9479,9.75 84.7031,8.97917 84.7031,8 C84.7031,7.01042 84.9479,6.23698 85.4375,5.67969 C85.9271,5.1224 86.6042,4.84375 87.4688,4.84375 "/>
</g>

<g fill="none" stroke="#000000" stroke-opacity="1" stroke-width="1" stroke-linecap="square" stroke-linejoin="bevel" transform="matrix(2.00012,0,0,2.00012,45.6806,22.0013)"
font-family="sans" font-size="11" font-weight="100" font-style="normal" 
>
</g>

<g fill="none" stroke="#000000" stroke-opacity="1" stroke-width="1" stroke-linecap="square" stroke-linejoin="bevel" transform="matrix(2.00012,0,0,2.00012,45.6806,22.0013)"
font-family="Ubuntu" font-size="11" font-weight="400" font-style="normal" 
>
</g>

<g fill="none" stroke="#000000" stroke-opacity="1" stroke-width="1" stroke-linecap="square" stroke-linejoin="bevel" transform="matrix(2.00012,0,0,2.00012,0.00240014,87.9471)"
font-family="Ubuntu" font-size="11" font-weight="400" font-style="normal" 
>
</g>

<g fill="none" stroke="#000000" stroke-opacity="1" stroke-width="1" stroke-linecap="square" stroke-linejoin="bevel" transform="matrix(2.00012,0,0,2.00012,0.00240014,87.9471)"
font-family="Ubuntu" font-size="11" font-weight="400" font-style="normal" 
>
</g>

<g fill="none" stroke="#000000" stroke-opacity="1" stroke-width="1" stroke-linecap="square" stroke-linejoin="bevel" transform="matrix(2.00012,0,0,2.00012,0.00240014,87.9471)"
font-family="Ubuntu" font-size="11" font-weight="400" font-style="normal" 
>
</g>

<g fill="none" stroke="#000000" stroke-opacity="1" stroke-width="1" stroke-linecap="square" stroke-linejoin="round" transform="matrix(2.00012,0,0,2.00012,0.00240014,87.9471)"
font-family="Ubuntu" font-size="11" font-weight="400" font-style="normal" 
>
<path vector-effect="none" fill-rule="evenodd" d="M136.76,-25.971 C190.49,-25.971 264.5,-25.971 315.76,-25.971 "/>
</g>

<g fill="none" stroke="#000000" stroke-opacity="1" stroke-width="1" stroke-linecap="square" stroke-linejoin="bevel" transform="matrix(2.00012,0,0,2.00012,0.00240014,87.9471)"
font-family="Ubuntu" font-size="11" font-weight="400" font-style="normal" 
>
</g>

<g fill="none" stroke="#000000" stroke-opacity="1" stroke-width="1" stroke-linecap="square" stroke-linejoin="bevel" transform="matrix(2.00012,0,0,2.00012,284.937,7.00041)"
font-family="Ubuntu" font-size="11" font-weight="400" font-style="normal" 
>
</g>

<g fill="none" stroke="#000000" stroke-opacity="1" stroke-width="1" stroke-linecap="square" stroke-linejoin="bevel" transform="matrix(2.00012,0,0,2.00012,284.937,7.00041)"
font-family="sans" font-size="11" font-weight="100" font-style="normal" 
>
</g>

<g fill="#000000" fill-opacity="1" stroke="#000000" stroke-opacity="1" stroke-width="1" stroke-linecap="square" stroke-linejoin="round" transform="matrix(2.00012,0,0,2.00012,284.937,7.00041)"
font-family="sans" font-size="11" font-weight="100" font-style="normal" 
>
<path vector-effect="none" fill-rule="nonzero" d="M2.79688,2.98438 L3.70313,2.98438 L0.90625,12.0156 L0,12.0156 L2.79688,2.98438 M9.0625,5.21875 L9.0625,6.14063 C8.79167,5.98438 8.51563,5.86719 8.23438,5.78906 C7.95313,5.71094 7.66667,5.67188 7.375,5.67188 C6.73958,5.67188 6.24479,5.875 5.89063,6.28125 C5.53646,6.6875 5.35938,7.26042 5.35938,8 C5.35938,8.72917 5.53646,9.29688 5.89063,9.70313 C6.24479,10.1094 6.73958,10.3125 7.375,10.3125 C7.66667,10.3125 7.95313,10.276 8.23438,10.2031 C8.51563,10.1302 8.79167,10.0156 9.0625,9.85938 L9.0625,10.7656 C8.79167,10.901 8.50781,11 8.21094,11.0625 C7.91406,11.125 7.59896,11.1563 7.26563,11.1563 C6.35938,11.1563 5.64063,10.8724 5.10938,10.3047 C4.57813,9.73698 4.3125,8.96875 4.3125,8 C4.3125,7.02083 4.58073,6.25 5.11719,5.6875 C5.65365,5.125 6.39063,4.84375 7.32813,4.84375 C7.64063,4.84375 7.9401,4.875 8.22656,4.9375 C8.51302,5 8.79167,5.09375 9.0625,5.21875 M13.5156,7.96875 C12.724,7.96875 12.1745,8.0625 11.8672,8.25 C11.5599,8.4375 11.4063,8.75 11.4063,9.1875 C11.4063,9.53125 11.5208,9.80729 11.75,10.0156 C11.9792,10.224 12.2917,10.3281 12.6875,10.3281 C13.2396,10.3281 13.6797,10.1328 14.0078,9.74219 C14.3359,9.35156 14.5,8.83854 14.5,8.20313 L14.5,7.96875 L13.5156,7.96875 M15.4844,7.5625 L15.4844,11 L14.5,11 L14.5,10.0938 C14.2813,10.4583 14.0026,10.7266 13.6641,10.8984 C13.3255,11.0703 12.9115,11.1563 12.4219,11.1563 C11.8073,11.1563 11.3177,10.9844 10.9531,10.6406 C10.5885,10.2969 10.4063,9.83333 10.4063,9.25 C10.4063,8.57292 10.6328,8.0625 11.0859,7.71875 C11.5391,7.375 12.2188,7.20313 13.125,7.20313 L14.5,7.20313 L14.5,7.10938 C14.5,6.65104 14.3516,6.29688 14.0547,6.04688 C13.7578,5.79688 13.3385,5.67188 12.7969,5.67188 C12.4531,5.67188 12.1172,5.71354 11.7891,5.79688 C11.4609,5.88021 11.1458,6.00521 10.8438,6.17188 L10.8438,5.26563 C11.2083,5.11979 11.5625,5.01302 11.9063,4.94531 C12.25,4.8776 12.5781,4.84375 12.8906,4.84375 C13.7656,4.84375 14.4167,5.06771 14.8438,5.51563 C15.2708,5.96354 15.4844,6.64583 15.4844,7.5625 M22.2031,6.14063 C22.4531,5.69271 22.75,5.36458 23.0938,5.15625 C23.4375,4.94792 23.8438,4.84375 24.3125,4.84375 C24.9375,4.84375 25.4193,5.0625 25.7578,5.5 C26.0964,5.9375 26.2656,6.5625 26.2656,7.375 L26.2656,11 L25.2656,11 L25.2656,7.40625 C25.2656,6.82292 25.1641,6.39323 24.9609,6.11719 C24.7578,5.84115 24.4479,5.70313 24.0313,5.70313 C23.5208,5.70313 23.1172,5.8724 22.8203,6.21094 C22.5234,6.54948 22.375,7.01042 22.375,7.59375 L22.375,11 L21.375,11 L21.375,7.40625 C21.375,6.82292 21.2734,6.39323 21.0703,6.11719 C20.8672,5.84115 20.5521,5.70313 20.125,5.70313 C19.625,5.70313 19.2266,5.8724 18.9297,6.21094 C18.6328,6.54948 18.4844,7.01042 18.4844,7.59375 L18.4844,11 L17.4844,11 L17.4844,4.98438 L18.4844,4.98438 L18.4844,5.92188 C18.7031,5.54688 18.9714,5.27344 19.2891,5.10156 C19.6068,4.92969 19.9792,4.84375 20.4063,4.84375 C20.8438,4.84375 21.2161,4.95313 21.5234,5.17188 C21.8307,5.39063 22.0573,5.71354 22.2031,6.14063 M33.375,7.75 L33.375,8.23438 L28.8281,8.23438 C28.8698,8.91146 29.0729,9.42708 29.4375,9.78125 C29.8021,10.1354 30.3125,10.3125 30.9688,10.3125 C31.3542,10.3125 31.724,10.2656 32.0781,10.1719 C32.4323,10.0781 32.7865,9.94271 33.1406,9.76563 L33.1406,10.6875 C32.7865,10.8438 32.4219,10.9609 32.0469,11.0391 C31.6719,11.1172 31.2969,11.1563 30.9219,11.1563 C29.9531,11.1563 29.1901,10.8776 28.6328,10.3203 C28.0755,9.76302 27.7969,9.00521 27.7969,8.04688 C27.7969,7.06771 28.0625,6.28906 28.5938,5.71094 C29.125,5.13281 29.8438,4.84375 30.75,4.84375 C31.5521,4.84375 32.1901,5.10417 32.6641,5.625 C33.138,6.14583 33.375,6.85417 33.375,7.75 M32.375,7.45313 C32.375,6.91146 32.2266,6.47917 31.9297,6.15625 C31.6328,5.83333 31.2396,5.67188 30.75,5.67188 C30.1979,5.67188 29.7578,5.82813 29.4297,6.14063 C29.1016,6.45313 28.9115,6.89063 28.8594,7.45313 L32.375,7.45313 M38.4688,5.90625 C38.3646,5.84375 38.2474,5.79688 38.1172,5.76563 C37.987,5.73438 37.8438,5.71875 37.6875,5.71875 C37.125,5.71875 36.6953,5.90104 36.3984,6.26563 C36.1016,6.63021 35.9531,7.15104 35.9531,7.82813 L35.9531,11 L34.9531,11 L34.9531,4.98438 L35.9531,4.98438 L35.9531,5.92188 C36.151,5.55729 36.4167,5.28646 36.75,5.10938 C37.0833,4.93229 37.4896,4.84375 37.9688,4.84375 C38.0417,4.84375 38.1172,4.84635 38.1953,4.85156 C38.2734,4.85677 38.3646,4.86979 38.4688,4.89063 L38.4688,5.90625 M42.2344,7.96875 C41.4427,7.96875 40.8932,8.0625 40.5859,8.25 C40.2786,8.4375 40.125,8.75 40.125,9.1875 C40.125,9.53125 40.2396,9.80729 40.4688,10.0156 C40.6979,10.224 41.0104,10.3281 41.4063,10.3281 C41.9583,10.3281 42.3984,10.1328 42.7266,9.74219 C43.0547,9.35156 43.2188,8.83854 43.2188,8.20313 L43.2188,7.96875 L42.2344,7.96875 M44.2031,7.5625 L44.2031,11 L43.2188,11 L43.2188,10.0938 C43,10.4583 42.7214,10.7266 42.3828,10.8984 C42.0443,11.0703 41.6302,11.1563 41.1406,11.1563 C40.526,11.1563 40.0365,10.9844 39.6719,10.6406 C39.3073,10.2969 39.125,9.83333 39.125,9.25 C39.125,8.57292 39.3516,8.0625 39.8047,7.71875 C40.2578,7.375 40.9375,7.20313 41.8438,7.20313 L43.2188,7.20313 L43.2188,7.10938 C43.2188,6.65104 43.0703,6.29688 42.7734,6.04688 C42.4766,5.79688 42.0573,5.67188 41.5156,5.67188 C41.1719,5.67188 40.8359,5.71354 40.5078,5.79688 C40.1797,5.88021 39.8646,6.00521 39.5625,6.17188 L39.5625,5.26563 C39.9271,5.11979 40.2813,5.01302 40.625,4.94531 C40.9688,4.8776 41.2969,4.84375 41.6094,4.84375 C42.4844,4.84375 43.1354,5.06771 43.5625,5.51563 C43.9896,5.96354 44.2031,6.64583 44.2031,7.5625 M48,2.98438 L48.9063,2.98438 L46.1094,12.0156 L45.2031,12.0156 L48,2.98438 M52.2813,5.67188 C51.75,5.67188 51.3307,5.88021 51.0234,6.29688 C50.7161,6.71354 50.5625,7.28125 50.5625,8 C50.5625,8.71875 50.7135,9.28385 51.0156,9.69531 C51.3177,10.1068 51.7396,10.3125 52.2813,10.3125 C52.8021,10.3125 53.2161,10.1068 53.5234,9.69531 C53.8307,9.28385 53.9844,8.71875 53.9844,8 C53.9844,7.28125 53.8307,6.71354 53.5234,6.29688 C53.2161,5.88021 52.8021,5.67188 52.2813,5.67188 M52.2813,4.84375 C53.1354,4.84375 53.8073,5.1224 54.2969,5.67969 C54.7865,6.23698 55.0313,7.01042 55.0313,8 C55.0313,8.97917 54.7865,9.75 54.2969,10.3125 C53.8073,10.875 53.1354,11.1563 52.2813,11.1563 C51.4167,11.1563 50.7396,10.875 50.25,10.3125 C49.7604,9.75 49.5156,8.97917 49.5156,8 C49.5156,7.01042 49.7604,6.23698 50.25,5.67969 C50.7396,5.1224 51.4167,4.84375 52.2813,4.84375 M56.5625,8.625 L56.5625,4.98438 L57.5469,4.98438 L57.5469,8.59375 C57.5469,9.15625 57.6589,9.58073 57.8828,9.86719 C58.1068,10.1536 58.4375,10.2969 58.875,10.2969 C59.4167,10.2969 59.8411,10.1276 60.1484,9.78906 C60.4557,9.45052 60.6094,8.98438 60.6094,8.39063 L60.6094,4.98438 L61.5938,4.98438 L61.5938,11 L60.6094,11 L60.6094,10.0781 C60.3698,10.4427 60.0911,10.7135 59.7734,10.8906 C59.4557,11.0677 59.0885,11.1563 58.6719,11.1563 C57.9844,11.1563 57.4609,10.9401 57.1016,10.5078 C56.7422,10.0755 56.5625,9.44792 56.5625,8.625 M64.6094,3.28125 L64.6094,4.98438 L66.6406,4.98438 L66.6406,5.75 L64.6094,5.75 L64.6094,9.01563 C64.6094,9.50521 64.6771,9.82031 64.8125,9.96094 C64.9479,10.1016 65.2188,10.1719 65.625,10.1719 L66.6406,10.1719 L66.6406,11 L65.625,11 C64.8646,11 64.3385,10.8568 64.0469,10.5703 C63.7552,10.2839 63.6094,9.76563 63.6094,9.01563 L63.6094,5.75 L62.8906,5.75 L62.8906,4.98438 L63.6094,4.98438 L63.6094,3.28125 L64.6094,3.28125 M68.9063,10.0938 L68.9063,13.2813 L67.9063,13.2813 L67.9063,4.98438 L68.9063,4.98438 L68.9063,5.89063 C69.1042,5.53646 69.362,5.27344 69.6797,5.10156 C69.9974,4.92969 70.3802,4.84375 70.8281,4.84375 C71.5573,4.84375 72.1484,5.13281 72.6016,5.71094 C73.0547,6.28906 73.2813,7.05208 73.2813,8 C73.2813,8.94792 73.0547,9.71094 72.6016,10.2891 C72.1484,10.8672 71.5573,11.1563 70.8281,11.1563 C70.3802,11.1563 69.9974,11.0703 69.6797,10.8984 C69.362,10.7266 69.1042,10.4583 68.9063,10.0938 M72.2656,8 C72.2656,7.27083 72.1146,6.70052 71.8125,6.28906 C71.5104,5.8776 71.099,5.67188 70.5781,5.67188 C70.0573,5.67188 69.6484,5.8776 69.3516,6.28906 C69.0547,6.70052 68.9063,7.27083 68.9063,8 C68.9063,8.72917 69.0547,9.29948 69.3516,9.71094 C69.6484,10.1224 70.0573,10.3281 70.5781,10.3281 C71.099,10.3281 71.5104,10.1224 71.8125,9.71094 C72.1146,9.29948 72.2656,8.72917 72.2656,8 M74.8125,8.625 L74.8125,4.98438 L75.7969,4.98438 L75.7969,8.59375 C75.7969,9.15625 75.9089,9.58073 76.1328,9.86719 C76.3568,10.1536 76.6875,10.2969 77.125,10.2969 C77.6667,10.2969 78.0911,10.1276 78.3984,9.78906 C78.7057,9.45052 78.8594,8.98438 78.8594,8.39063 L78.8594,4.98438 L79.8438,4.98438 L79.8438,11 L78.8594,11 L78.8594,10.0781 C78.6198,10.4427 78.3411,10.7135 78.0234,10.8906 C77.7057,11.0677 77.3385,11.1563 76.9219,11.1563 C76.2344,11.1563 75.7109,10.9401 75.3516,10.5078 C74.9922,10.0755 74.8125,9.44792 74.8125,8.625 M82.8594,3.28125 L82.8594,4.98438 L84.8906,4.98438 L84.8906,5.75 L82.8594,5.75 L82.8594,9.01563 C82.8594,9.50521 82.9271,9.82031 83.0625,9.96094 C83.1979,10.1016 83.4688,10.1719 83.875,10.1719 L84.8906,10.1719 L84.8906,11 L83.875,11 C83.1146,11 82.5885,10.8568 82.2969,10.5703 C82.0052,10.2839 81.8594,9.76563 81.8594,9.01563 L81.8594,5.75 L81.1406,5.75 L81.1406,4.98438 L81.8594,4.98438 L81.8594,3.28125 L82.8594,3.28125 M87.9531,2.98438 L88.8594,2.98438 L86.0625,12.0156 L85.1563,12.0156 L87.9531,2.98438 M93.375,5.90625 C93.2708,5.84375 93.1536,5.79688 93.0234,5.76563 C92.8932,5.73438 92.75,5.71875 92.5938,5.71875 C92.0313,5.71875 91.6016,5.90104 91.3047,6.26563 C91.0078,6.63021 90.8594,7.15104 90.8594,7.82813 L90.8594,11 L89.8594,11 L89.8594,4.98438 L90.8594,4.98438 L90.8594,5.92188 C91.0573,5.55729 91.3229,5.28646 91.6563,5.10938 C91.9896,4.93229 92.3958,4.84375 92.875,4.84375 C92.9479,4.84375 93.0234,4.84635 93.1016,4.85156 C93.1797,4.85677 93.2708,4.86979 93.375,4.89063 L93.375,5.90625 M97.1406,7.96875 C96.349,7.96875 95.7995,8.0625 95.4922,8.25 C95.1849,8.4375 95.0313,8.75 95.0313,9.1875 C95.0313,9.53125 95.1458,9.80729 95.375,10.0156 C95.6042,10.224 95.9167,10.3281 96.3125,10.3281 C96.8646,10.3281 97.3047,10.1328 97.6328,9.74219 C97.9609,9.35156 98.125,8.83854 98.125,8.20313 L98.125,7.96875 L97.1406,7.96875 M99.1094,7.5625 L99.1094,11 L98.125,11 L98.125,10.0938 C97.9063,10.4583 97.6276,10.7266 97.2891,10.8984 C96.9505,11.0703 96.5365,11.1563 96.0469,11.1563 C95.4323,11.1563 94.9427,10.9844 94.5781,10.6406 C94.2135,10.2969 94.0313,9.83333 94.0313,9.25 C94.0313,8.57292 94.2578,8.0625 94.7109,7.71875 C95.1641,7.375 95.8438,7.20313 96.75,7.20313 L98.125,7.20313 L98.125,7.10938 C98.125,6.65104 97.9766,6.29688 97.6797,6.04688 C97.3828,5.79688 96.9635,5.67188 96.4219,5.67188 C96.0781,5.67188 95.7422,5.71354 95.4141,5.79688 C95.0859,5.88021 94.7708,6.00521 94.4688,6.17188 L94.4688,5.26563 C94.8333,5.11979 95.1875,5.01302 95.5313,4.94531 C95.875,4.8776 96.2031,4.84375 96.5156,4.84375 C97.3906,4.84375 98.0417,5.06771 98.4688,5.51563 C98.8958,5.96354 99.1094,6.64583 99.1094,7.5625 M106.141,7.375 L106.141,11 L105.156,11 L105.156,7.40625 C105.156,6.83333 105.047,6.40625 104.828,6.125 C104.609,5.84375 104.276,5.70313 103.828,5.70313 C103.297,5.70313 102.878,5.8724 102.57,6.21094 C102.263,6.54948 102.109,7.01042 102.109,7.59375 L102.109,11 L101.109,11 L101.109,4.98438 L102.109,4.98438 L102.109,5.92188 C102.339,5.55729 102.615,5.28646 102.938,5.10938 C103.26,4.93229 103.63,4.84375 104.047,4.84375 C104.734,4.84375 105.255,5.05729 105.609,5.48438 C105.964,5.91146 106.141,6.54167 106.141,7.375 M112.078,5.89063 L112.078,2.64063 L113.063,2.64063 L113.063,11 L112.078,11 L112.078,10.0938 C111.87,10.4583 111.607,10.7266 111.289,10.8984 C110.971,11.0703 110.589,11.1563 110.141,11.1563 C109.422,11.1563 108.833,10.8672 108.375,10.2891 C107.917,9.71094 107.688,8.94792 107.688,8 C107.688,7.05208 107.917,6.28906 108.375,5.71094 C108.833,5.13281 109.422,4.84375 110.141,4.84375 C110.589,4.84375 110.971,4.92969 111.289,5.10156 C111.607,5.27344 111.87,5.53646 112.078,5.89063 M108.703,8 C108.703,8.72917 108.854,9.29948 109.156,9.71094 C109.458,10.1224 109.87,10.3281 110.391,10.3281 C110.911,10.3281 111.323,10.1224 111.625,9.71094 C111.927,9.29948 112.078,8.72917 112.078,8 C112.078,7.27083 111.927,6.70052 111.625,6.28906 C111.323,5.8776 110.911,5.67188 110.391,5.67188 C109.87,5.67188 109.458,5.8776 109.156,6.28906 C108.854,6.70052 108.703,7.27083 108.703,8 M117.422,5.67188 C116.891,5.67188 116.471,5.88021 116.164,6.29688 C115.857,6.71354 115.703,7.28125 115.703,8 C115.703,8.71875 115.854,9.28385 116.156,9.69531 C116.458,10.1068 116.88,10.3125 117.422,10.3125 C117.943,10.3125 118.357,10.1068 118.664,9.69531 C118.971,9.28385 119.125,8.71875 119.125,8 C119.125,7.28125 118.971,6.71354 118.664,6.29688 C118.357,5.88021 117.943,5.67188 117.422,5.67188 M117.422,4.84375 C118.276,4.84375 118.948,5.1224 119.438,5.67969 C119.927,6.23698 120.172,7.01042 120.172,8 C120.172,8.97917 119.927,9.75 119.438,10.3125 C118.948,10.875 118.276,11.1563 117.422,11.1563 C116.557,11.1563 115.88,10.875 115.391,10.3125 C114.901,9.75 114.656,8.97917 114.656,8 C114.656,7.01042 114.901,6.23698 115.391,5.67969 C115.88,5.1224 116.557,4.84375 117.422,4.84375 M126.484,6.14063 C126.734,5.69271 127.031,5.36458 127.375,5.15625 C127.719,4.94792 128.125,4.84375 128.594,4.84375 C129.219,4.84375 129.701,5.0625 130.039,5.5 C130.378,5.9375 130.547,6.5625 130.547,7.375 L130.547,11 L129.547,11 L129.547,7.40625 C129.547,6.82292 129.445,6.39323 129.242,6.11719 C129.039,5.84115 128.729,5.70313 128.313,5.70313 C127.802,5.70313 127.398,5.8724 127.102,6.21094 C126.805,6.54948 126.656,7.01042 126.656,7.59375 L126.656,11 L125.656,11 L125.656,7.40625 C125.656,6.82292 125.555,6.39323 125.352,6.11719 C125.148,5.84115 124.833,5.70313 124.406,5.70313 C123.906,5.70313 123.508,5.8724 123.211,6.21094 C122.914,6.54948 122.766,7.01042 122.766,7.59375 L122.766,11 L121.766,11 L121.766,4.98438 L122.766,4.98438 L122.766,5.92188 C122.984,5.54688 123.253,5.27344 123.57,5.10156 C123.888,4.92969 124.26,4.84375 124.688,4.84375 C125.125,4.84375 125.497,4.95313 125.805,5.17188 C126.112,5.39063 126.339,5.71354 126.484,6.14063 M134.266,2.98438 L135.172,2.98438 L132.375,12.0156 L131.469,12.0156 L134.266,2.98438 M141.203,7.375 L141.203,11 L140.219,11 L140.219,7.40625 C140.219,6.83333 140.109,6.40625 139.891,6.125 C139.672,5.84375 139.339,5.70313 138.891,5.70313 C138.359,5.70313 137.94,5.8724 137.633,6.21094 C137.326,6.54948 137.172,7.01042 137.172,7.59375 L137.172,11 L136.172,11 L136.172,4.98438 L137.172,4.98438 L137.172,5.92188 C137.401,5.55729 137.677,5.28646 138,5.10938 C138.323,4.93229 138.693,4.84375 139.109,4.84375 C139.797,4.84375 140.318,5.05729 140.672,5.48438 C141.026,5.91146 141.203,6.54167 141.203,7.375 M143.078,8.625 L143.078,4.98438 L144.063,4.98438 L144.063,8.59375 C144.063,9.15625 144.174,9.58073 144.398,9.86719 C144.622,10.1536 144.953,10.2969 145.391,10.2969 C145.932,10.2969 146.357,10.1276 146.664,9.78906 C146.971,9.45052 147.125,8.98438 147.125,8.39063 L147.125,4.98438 L148.109,4.98438 L148.109,11 L147.125,11 L147.125,10.0781 C146.885,10.4427 146.607,10.7135 146.289,10.8906 C145.971,11.0677 145.604,11.1563 145.188,11.1563 C144.5,11.1563 143.977,10.9401 143.617,10.5078 C143.258,10.0755 143.078,9.44792 143.078,8.625 M154.828,6.14063 C155.078,5.69271 155.375,5.36458 155.719,5.15625 C156.063,4.94792 156.469,4.84375 156.938,4.84375 C157.563,4.84375 158.044,5.0625 158.383,5.5 C158.721,5.9375 158.891,6.5625 158.891,7.375 L158.891,11 L157.891,11 L157.891,7.40625 C157.891,6.82292 157.789,6.39323 157.586,6.11719 C157.383,5.84115 157.073,5.70313 156.656,5.70313 C156.146,5.70313 155.742,5.8724 155.445,6.21094 C155.148,6.54948 155,7.01042 155,7.59375 L155,11 L154,11 L154,7.40625 C154,6.82292 153.898,6.39323 153.695,6.11719 C153.492,5.84115 153.177,5.70313 152.75,5.70313 C152.25,5.70313 151.852,5.8724 151.555,6.21094 C151.258,6.54948 151.109,7.01042 151.109,7.59375 L151.109,11 L150.109,11 L150.109,4.98438 L151.109,4.98438 L151.109,5.92188 C151.328,5.54688 151.596,5.27344 151.914,5.10156 C152.232,4.92969 152.604,4.84375 153.031,4.84375 C153.469,4.84375 153.841,4.95313 154.148,5.17188 C154.456,5.39063 154.682,5.71354 154.828,6.14063 M165.172,8 C165.172,7.27083 165.021,6.70052 164.719,6.28906 C164.417,5.8776 164.005,5.67188 163.484,5.67188 C162.964,5.67188 162.555,5.8776 162.258,6.28906 C161.961,6.70052 161.813,7.27083 161.813,8 C161.813,8.72917 161.961,9.29948 162.258,9.71094 C162.555,10.1224 162.964,10.3281 163.484,10.3281 C164.005,10.3281 164.417,10.1224 164.719,9.71094 C165.021,9.29948 165.172,8.72917 165.172,8 M161.813,5.89063 C162.01,5.53646 162.268,5.27344 162.586,5.10156 C162.904,4.92969 163.286,4.84375 163.734,4.84375 C164.464,4.84375 165.055,5.13281 165.508,5.71094 C165.961,6.28906 166.188,7.05208 166.188,8 C166.188,8.94792 165.961,9.71094 165.508,10.2891 C165.055,10.8672 164.464,11.1563 163.734,11.1563 C163.286,11.1563 162.904,11.0703 162.586,10.8984 C162.268,10.7266 162.01,10.4583 161.813,10.0938 L161.813,11 L160.813,11 L160.813,2.64063 L161.813,2.64063 L161.813,5.89063 M172.969,7.75 L172.969,8.23438 L168.422,8.23438 C168.464,8.91146 168.667,9.42708 169.031,9.78125 C169.396,10.1354 169.906,10.3125 170.563,10.3125 C170.948,10.3125 171.318,10.2656 171.672,10.1719 C172.026,10.0781 172.38,9.94271 172.734,9.76563 L172.734,10.6875 C172.38,10.8438 172.016,10.9609 171.641,11.0391 C171.266,11.1172 170.891,11.1563 170.516,11.1563 C169.547,11.1563 168.784,10.8776 168.227,10.3203 C167.669,9.76302 167.391,9.00521 167.391,8.04688 C167.391,7.06771 167.656,6.28906 168.188,5.71094 C168.719,5.13281 169.438,4.84375 170.344,4.84375 C171.146,4.84375 171.784,5.10417 172.258,5.625 C172.732,6.14583 172.969,6.85417 172.969,7.75 M171.969,7.45313 C171.969,6.91146 171.82,6.47917 171.523,6.15625 C171.227,5.83333 170.833,5.67188 170.344,5.67188 C169.792,5.67188 169.352,5.82813 169.023,6.14063 C168.695,6.45313 168.505,6.89063 168.453,7.45313 L171.969,7.45313 M178.063,5.90625 C177.958,5.84375 177.841,5.79688 177.711,5.76563 C177.581,5.73438 177.438,5.71875 177.281,5.71875 C176.719,5.71875 176.289,5.90104 175.992,6.26563 C175.695,6.63021 175.547,7.15104 175.547,7.82813 L175.547,11 L174.547,11 L174.547,4.98438 L175.547,4.98438 L175.547,5.92188 C175.745,5.55729 176.01,5.28646 176.344,5.10938 C176.677,4.93229 177.083,4.84375 177.563,4.84375 C177.635,4.84375 177.711,4.84635 177.789,4.85156 C177.867,4.85677 177.958,4.86979 178.063,4.89063 L178.063,5.90625"/>
</g>

<g fill="none" stroke="#000000" stroke-opacity="1" stroke-width="1" stroke-linecap="square" stroke-linejoin="bevel" transform="matrix(2.00012,0,0,2.00012,284.937,7.00041)"
font-family="sans" font-size="11" font-weight="100" font-style="normal" 
>
</g>

<g fill="none" stroke="#000000" stroke-opacity="1" stroke-width="1" stroke-linecap="square" stroke-linejoin="bevel" transform="matrix(2.00012,0,0,2.00012,284.937,7.00041)"
font-family="Ubuntu" font-size="11" font-weight="400" font-style="normal" 
>
</g>

<g fill="none" stroke="#000000" stroke-opacity="1" stroke-width="1" stroke-linecap="square" stroke-linejoin="bevel" transform="matrix(2.00012,0,0,2.00012,0.00240014,87.9471)"
font-family="Ubuntu" font-size="11" font-weight="400" font-style="normal" 
>
</g>

<g fill="#000000" fill-opacity="1" stroke="#000000" stroke-opacity="1" stroke-width="1" stroke-linecap="square" stroke-linejoin="round" transform="matrix(2.00012,0,0,2.00012,0.00240014,87.9471)"
font-family="Ubuntu" font-size="11" font-weight="400" font-style="normal" 
>
<path vector-effect="none" fill-rule="evenodd" d="M315.76,-25.971 L315.76,-22.38 L326.02,-25.971 L315.76,-29.562 L315.76,-25.971"/>
</g>

<g fill="none" stroke="#000000" stroke-opacity="1" stroke-width="1" stroke-linecap="square" stroke-linejoin="bevel" transform="matrix(2.00012,0,0,2.00012,0.00240014,87.9471)"
font-family="Ubuntu" font-size="11" font-weight="400" font-style="normal" 
>
</g>

<g fill="none" stroke="#000000" stroke-opacity="1" stroke-width="1" stroke-linecap="square" stroke-linejoin="bevel" transform="matrix(2.00012,0,0,2.00012,0.00240014,87.9471)"
font-family="Ubuntu" font-size="11" font-weight="400" font-style="normal" 
>
</g>

<g fill="none" stroke="#000000" stroke-opacity="1" stroke-width="1" stroke-linecap="square" stroke-linejoin="bevel" transform="matrix(2.00012,0,0,2.00012,0.00240014,87.9471)"
font-family="Ubuntu" font-size="11" font-weight="400" font-style="normal" 
>
</g>

<g fill="none" stroke="#000000" stroke-opacity="1" stroke-width="1" stroke-linecap="square" stroke-linejoin="bevel" transform="matrix(2.00012,0,0,2.00012,0.00240014,87.9471)"
font-family="Ubuntu" font-size="11" font-weight="400" font-style="normal" 
>
</g>

<g fill="none" stroke="#000000" stroke-opacity="1" stroke-width="1" stroke-linecap="square" stroke-linejoin="round" transform="matrix(2.00012,0,0,2.00012,0.00240014,87.9471)"
font-family="Ubuntu" font-size="11" font-weight="400" font-style="normal" 
>
<path vector-effect="none" fill-rule="evenodd" d="M340.83,-13.206 C333.55,-11.031 325.84,-9.1093 318.49,-7.9709 C242.06,3.8595 221.3,0.97346 144.49,-7.9709 C138.37,-8.6832 132.03,-9.7067 125.74,-10.909 "/>
</g>

<g fill="none" stroke="#000000" stroke-opacity="1" stroke-width="1" stroke-linecap="square" stroke-linejoin="bevel" transform="matrix(2.00012,0,0,2.00012,0.00240014,87.9471)"
font-family="Ubuntu" font-size="11" font-weight="400" font-style="normal" 
>
</g>

<g fill="none" stroke="#000000" stroke-opacity="1" stroke-width="1" stroke-linecap="square" stroke-linejoin="bevel" transform="matrix(2.00012,0,0,2.00012,294.031,43.0025)"
font-family="Ubuntu" font-size="11" font-weight="400" font-style="normal" 
>
</g>

<g fill="none" stroke="#000000" stroke-opacity="1" stroke-width="1" stroke-linecap="square" stroke-linejoin="bevel" transform="matrix(2.00012,0,0,2.00012,294.031,43.0025)"
font-family="sans" font-size="11" font-weight="100" font-style="normal" 
>
</g>

<g fill="#000000" fill-opacity="1" stroke="#000000" stroke-opacity="1" stroke-width="1" stroke-linecap="square" stroke-linejoin="round" transform="matrix(2.00012,0,0,2.00012,294.031,43.0025)"
font-family="sans" font-size="11" font-weight="100" font-style="normal" 
>
<path vector-effect="none" fill-rule="nonzero" d="M2.79688,2.98438 L3.70313,2.98438 L0.90625,12.0156 L0,12.0156 L2.79688,2.98438 M9.0625,5.21875 L9.0625,6.14063 C8.79167,5.98438 8.51563,5.86719 8.23438,5.78906 C7.95313,5.71094 7.66667,5.67188 7.375,5.67188 C6.73958,5.67188 6.24479,5.875 5.89063,6.28125 C5.53646,6.6875 5.35938,7.26042 5.35938,8 C5.35938,8.72917 5.53646,9.29688 5.89063,9.70313 C6.24479,10.1094 6.73958,10.3125 7.375,10.3125 C7.66667,10.3125 7.95313,10.276 8.23438,10.2031 C8.51563,10.1302 8.79167,10.0156 9.0625,9.85938 L9.0625,10.7656 C8.79167,10.901 8.50781,11 8.21094,11.0625 C7.91406,11.125 7.59896,11.1563 7.26563,11.1563 C6.35938,11.1563 5.64063,10.8724 5.10938,10.3047 C4.57813,9.73698 4.3125,8.96875 4.3125,8 C4.3125,7.02083 4.58073,6.25 5.11719,5.6875 C5.65365,5.125 6.39063,4.84375 7.32813,4.84375 C7.64063,4.84375 7.9401,4.875 8.22656,4.9375 C8.51302,5 8.79167,5.09375 9.0625,5.21875 M13.5156,7.96875 C12.724,7.96875 12.1745,8.0625 11.8672,8.25 C11.5599,8.4375 11.4063,8.75 11.4063,9.1875 C11.4063,9.53125 11.5208,9.80729 11.75,10.0156 C11.9792,10.224 12.2917,10.3281 12.6875,10.3281 C13.2396,10.3281 13.6797,10.1328 14.0078,9.74219 C14.3359,9.35156 14.5,8.83854 14.5,8.20313 L14.5,7.96875 L13.5156,7.96875 M15.4844,7.5625 L15.4844,11 L14.5,11 L14.5,10.0938 C14.2813,10.4583 14.0026,10.7266 13.6641,10.8984 C13.3255,11.0703 12.9115,11.1563 12.4219,11.1563 C11.8073,11.1563 11.3177,10.9844 10.9531,10.6406 C10.5885,10.2969 10.4063,9.83333 10.4063,9.25 C10.4063,8.57292 10.6328,8.0625 11.0859,7.71875 C11.5391,7.375 12.2188,7.20313 13.125,7.20313 L14.5,7.20313 L14.5,7.10938 C14.5,6.65104 14.3516,6.29688 14.0547,6.04688 C13.7578,5.79688 13.3385,5.67188 12.7969,5.67188 C12.4531,5.67188 12.1172,5.71354 11.7891,5.79688 C11.4609,5.88021 11.1458,6.00521 10.8438,6.17188 L10.8438,5.26563 C11.2083,5.11979 11.5625,5.01302 11.9063,4.94531 C12.25,4.8776 12.5781,4.84375 12.8906,4.84375 C13.7656,4.84375 14.4167,5.06771 14.8438,5.51563 C15.2708,5.96354 15.4844,6.64583 15.4844,7.5625 M22.2031,6.14063 C22.4531,5.69271 22.75,5.36458 23.0938,5.15625 C23.4375,4.94792 23.8438,4.84375 24.3125,4.84375 C24.9375,4.84375 25.4193,5.0625 25.7578,5.5 C26.0964,5.9375 26.2656,6.5625 26.2656,7.375 L26.2656,11 L25.2656,11 L25.2656,7.40625 C25.2656,6.82292 25.1641,6.39323 24.9609,6.11719 C24.7578,5.84115 24.4479,5.70313 24.0313,5.70313 C23.5208,5.70313 23.1172,5.8724 22.8203,6.21094 C22.5234,6.54948 22.375,7.01042 22.375,7.59375 L22.375,11 L21.375,11 L21.375,7.40625 C21.375,6.82292 21.2734,6.39323 21.0703,6.11719 C20.8672,5.84115 20.5521,5.70313 20.125,5.70313 C19.625,5.70313 19.2266,5.8724 18.9297,6.21094 C18.6328,6.54948 18.4844,7.01042 18.4844,7.59375 L18.4844,11 L17.4844,11 L17.4844,4.98438 L18.4844,4.98438 L18.4844,5.92188 C18.7031,5.54688 18.9714,5.27344 19.2891,5.10156 C19.6068,4.92969 19.9792,4.84375 20.4063,4.84375 C20.8438,4.84375 21.2161,4.95313 21.5234,5.17188 C21.8307,5.39063 22.0573,5.71354 22.2031,6.14063 M33.375,7.75 L33.375,8.23438 L28.8281,8.23438 C28.8698,8.91146 29.0729,9.42708 29.4375,9.78125 C29.8021,10.1354 30.3125,10.3125 30.9688,10.3125 C31.3542,10.3125 31.724,10.2656 32.0781,10.1719 C32.4323,10.0781 32.7865,9.94271 33.1406,9.76563 L33.1406,10.6875 C32.7865,10.8438 32.4219,10.9609 32.0469,11.0391 C31.6719,11.1172 31.2969,11.1563 30.9219,11.1563 C29.9531,11.1563 29.1901,10.8776 28.6328,10.3203 C28.0755,9.76302 27.7969,9.00521 27.7969,8.04688 C27.7969,7.06771 28.0625,6.28906 28.5938,5.71094 C29.125,5.13281 29.8438,4.84375 30.75,4.84375 C31.5521,4.84375 32.1901,5.10417 32.6641,5.625 C33.138,6.14583 33.375,6.85417 33.375,7.75 M32.375,7.45313 C32.375,6.91146 32.2266,6.47917 31.9297,6.15625 C31.6328,5.83333 31.2396,5.67188 30.75,5.67188 C30.1979,5.67188 29.7578,5.82813 29.4297,6.14063 C29.1016,6.45313 28.9115,6.89063 28.8594,7.45313 L32.375,7.45313 M38.4688,5.90625 C38.3646,5.84375 38.2474,5.79688 38.1172,5.76563 C37.987,5.73438 37.8438,5.71875 37.6875,5.71875 C37.125,5.71875 36.6953,5.90104 36.3984,6.26563 C36.1016,6.63021 35.9531,7.15104 35.9531,7.82813 L35.9531,11 L34.9531,11 L34.9531,4.98438 L35.9531,4.98438 L35.9531,5.92188 C36.151,5.55729 36.4167,5.28646 36.75,5.10938 C37.0833,4.93229 37.4896,4.84375 37.9688,4.84375 C38.0417,4.84375 38.1172,4.84635 38.1953,4.85156 C38.2734,4.85677 38.3646,4.86979 38.4688,4.89063 L38.4688,5.90625 M42.2344,7.96875 C41.4427,7.96875 40.8932,8.0625 40.5859,8.25 C40.2786,8.4375 40.125,8.75 40.125,9.1875 C40.125,9.53125 40.2396,9.80729 40.4688,10.0156 C40.6979,10.224 41.0104,10.3281 41.4063,10.3281 C41.9583,10.3281 42.3984,10.1328 42.7266,9.74219 C43.0547,9.35156 43.2188,8.83854 43.2188,8.20313 L43.2188,7.96875 L42.2344,7.96875 M44.2031,7.5625 L44.2031,11 L43.2188,11 L43.2188,10.0938 C43,10.4583 42.7214,10.7266 42.3828,10.8984 C42.0443,11.0703 41.6302,11.1563 41.1406,11.1563 C40.526,11.1563 40.0365,10.9844 39.6719,10.6406 C39.3073,10.2969 39.125,9.83333 39.125,9.25 C39.125,8.57292 39.3516,8.0625 39.8047,7.71875 C40.2578,7.375 40.9375,7.20313 41.8438,7.20313 L43.2188,7.20313 L43.2188,7.10938 C43.2188,6.65104 43.0703,6.29688 42.7734,6.04688 C42.4766,5.79688 42.0573,5.67188 41.5156,5.67188 C41.1719,5.67188 40.8359,5.71354 40.5078,5.79688 C40.1797,5.88021 39.8646,6.00521 39.5625,6.17188 L39.5625,5.26563 C39.9271,5.11979 40.2813,5.01302 40.625,4.94531 C40.9688,4.8776 41.2969,4.84375 41.6094,4.84375 C42.4844,4.84375 43.1354,5.06771 43.5625,5.51563 C43.9896,5.96354 44.2031,6.64583 44.2031,7.5625 M48,2.98438 L48.9063,2.98438 L46.1094,12.0156 L45.2031,12.0156 L48,2.98438 M49.9375,4.98438 L50.9375,4.98438 L50.9375,11 L49.9375,11 L49.9375,4.98438 M49.9375,2.64063 L50.9375,2.64063 L50.9375,3.89063 L49.9375,3.89063 L49.9375,2.64063 M57.9844,7.375 L57.9844,11 L57,11 L57,7.40625 C57,6.83333 56.8906,6.40625 56.6719,6.125 C56.4531,5.84375 56.1198,5.70313 55.6719,5.70313 C55.1406,5.70313 54.7214,5.8724 54.4141,6.21094 C54.1068,6.54948 53.9531,7.01042 53.9531,7.59375 L53.9531,11 L52.9531,11 L52.9531,4.98438 L53.9531,4.98438 L53.9531,5.92188 C54.1823,5.55729 54.4583,5.28646 54.7813,5.10938 C55.1042,4.93229 55.474,4.84375 55.8906,4.84375 C56.5781,4.84375 57.099,5.05729 57.4531,5.48438 C57.8073,5.91146 57.9844,6.54167 57.9844,7.375 M60.9219,10.0938 L60.9219,13.2813 L59.9219,13.2813 L59.9219,4.98438 L60.9219,4.98438 L60.9219,5.89063 C61.1198,5.53646 61.3776,5.27344 61.6953,5.10156 C62.013,4.92969 62.3958,4.84375 62.8438,4.84375 C63.5729,4.84375 64.1641,5.13281 64.6172,5.71094 C65.0703,6.28906 65.2969,7.05208 65.2969,8 C65.2969,8.94792 65.0703,9.71094 64.6172,10.2891 C64.1641,10.8672 63.5729,11.1563 62.8438,11.1563 C62.3958,11.1563 62.013,11.0703 61.6953,10.8984 C61.3776,10.7266 61.1198,10.4583 60.9219,10.0938 M64.2813,8 C64.2813,7.27083 64.1302,6.70052 63.8281,6.28906 C63.526,5.8776 63.1146,5.67188 62.5938,5.67188 C62.0729,5.67188 61.6641,5.8776 61.3672,6.28906 C61.0703,6.70052 60.9219,7.27083 60.9219,8 C60.9219,8.72917 61.0703,9.29948 61.3672,9.71094 C61.6641,10.1224 62.0729,10.3281 62.5938,10.3281 C63.1146,10.3281 63.526,10.1224 63.8281,9.71094 C64.1302,9.29948 64.2813,8.72917 64.2813,8 M66.8281,8.625 L66.8281,4.98438 L67.8125,4.98438 L67.8125,8.59375 C67.8125,9.15625 67.9245,9.58073 68.1484,9.86719 C68.3724,10.1536 68.7031,10.2969 69.1406,10.2969 C69.6823,10.2969 70.1068,10.1276 70.4141,9.78906 C70.7214,9.45052 70.875,8.98438 70.875,8.39063 L70.875,4.98438 L71.8594,4.98438 L71.8594,11 L70.875,11 L70.875,10.0781 C70.6354,10.4427 70.3568,10.7135 70.0391,10.8906 C69.7214,11.0677 69.3542,11.1563 68.9375,11.1563 C68.25,11.1563 67.7266,10.9401 67.3672,10.5078 C67.0078,10.0755 66.8281,9.44792 66.8281,8.625 M74.875,3.28125 L74.875,4.98438 L76.9063,4.98438 L76.9063,5.75 L74.875,5.75 L74.875,9.01563 C74.875,9.50521 74.9427,9.82031 75.0781,9.96094 C75.2135,10.1016 75.4844,10.1719 75.8906,10.1719 L76.9063,10.1719 L76.9063,11 L75.8906,11 C75.1302,11 74.6042,10.8568 74.3125,10.5703 C74.0208,10.2839 73.875,9.76563 73.875,9.01563 L73.875,5.75 L73.1563,5.75 L73.1563,4.98438 L73.875,4.98438 L73.875,3.28125 L74.875,3.28125 M79.9688,2.98438 L80.875,2.98438 L78.0781,12.0156 L77.1719,12.0156 L79.9688,2.98438 M85.75,5.15625 L85.75,6.09375 C85.4688,5.94792 85.1771,5.84115 84.875,5.77344 C84.5729,5.70573 84.2604,5.67188 83.9375,5.67188 C83.4479,5.67188 83.0807,5.7474 82.8359,5.89844 C82.5911,6.04948 82.4688,6.27083 82.4688,6.5625 C82.4688,6.79167 82.5573,6.97135 82.7344,7.10156 C82.9115,7.23177 83.2656,7.35938 83.7969,7.48438 L84.125,7.5625 C84.8333,7.70833 85.3333,7.91927 85.625,8.19531 C85.9167,8.47135 86.0625,8.85417 86.0625,9.34375 C86.0625,9.89583 85.8438,10.3359 85.4063,10.6641 C84.9688,10.9922 84.3594,11.1563 83.5781,11.1563 C83.2552,11.1563 82.9193,11.125 82.5703,11.0625 C82.2214,11 81.8542,10.9063 81.4688,10.7813 L81.4688,9.76563 C81.8333,9.95313 82.1927,10.0938 82.5469,10.1875 C82.901,10.2813 83.2552,10.3281 83.6094,10.3281 C84.0677,10.3281 84.4219,10.2474 84.6719,10.0859 C84.9219,9.92448 85.0469,9.70313 85.0469,9.42188 C85.0469,9.15104 84.9583,8.94271 84.7813,8.79688 C84.6042,8.65104 84.2083,8.51563 83.5938,8.39063 L83.25,8.29688 C82.6354,8.17188 82.1927,7.97656 81.9219,7.71094 C81.651,7.44531 81.5156,7.07813 81.5156,6.60938 C81.5156,6.04688 81.7161,5.61198 82.1172,5.30469 C82.5182,4.9974 83.0885,4.84375 83.8281,4.84375 C84.1927,4.84375 84.5365,4.86979 84.8594,4.92188 C85.1823,4.97396 85.4792,5.05208 85.75,5.15625 M88.5938,10.0938 L88.5938,13.2813 L87.5938,13.2813 L87.5938,4.98438 L88.5938,4.98438 L88.5938,5.89063 C88.7917,5.53646 89.0495,5.27344 89.3672,5.10156 C89.6849,4.92969 90.0677,4.84375 90.5156,4.84375 C91.2448,4.84375 91.8359,5.13281 92.2891,5.71094 C92.7422,6.28906 92.9688,7.05208 92.9688,8 C92.9688,8.94792 92.7422,9.71094 92.2891,10.2891 C91.8359,10.8672 91.2448,11.1563 90.5156,11.1563 C90.0677,11.1563 89.6849,11.0703 89.3672,10.8984 C89.0495,10.7266 88.7917,10.4583 88.5938,10.0938 M91.9531,8 C91.9531,7.27083 91.8021,6.70052 91.5,6.28906 C91.1979,5.8776 90.7865,5.67188 90.2656,5.67188 C89.7448,5.67188 89.3359,5.8776 89.0391,6.28906 C88.7422,6.70052 88.5938,7.27083 88.5938,8 C88.5938,8.72917 88.7422,9.29948 89.0391,9.71094 C89.3359,10.1224 89.7448,10.3281 90.2656,10.3281 C90.7865,10.3281 91.1979,10.1224 91.5,9.71094 C91.8021,9.29948 91.9531,8.72917 91.9531,8 M99.75,7.75 L99.75,8.23438 L95.2031,8.23438 C95.2448,8.91146 95.4479,9.42708 95.8125,9.78125 C96.1771,10.1354 96.6875,10.3125 97.3438,10.3125 C97.7292,10.3125 98.099,10.2656 98.4531,10.1719 C98.8073,10.0781 99.1615,9.94271 99.5156,9.76563 L99.5156,10.6875 C99.1615,10.8438 98.7969,10.9609 98.4219,11.0391 C98.0469,11.1172 97.6719,11.1563 97.2969,11.1563 C96.3281,11.1563 95.5651,10.8776 95.0078,10.3203 C94.4505,9.76302 94.1719,9.00521 94.1719,8.04688 C94.1719,7.06771 94.4375,6.28906 94.9688,5.71094 C95.5,5.13281 96.2188,4.84375 97.125,4.84375 C97.9271,4.84375 98.5651,5.10417 99.0391,5.625 C99.513,6.14583 99.75,6.85417 99.75,7.75 M98.75,7.45313 C98.75,6.91146 98.6016,6.47917 98.3047,6.15625 C98.0078,5.83333 97.6146,5.67188 97.125,5.67188 C96.5729,5.67188 96.1328,5.82813 95.8047,6.14063 C95.4766,6.45313 95.2865,6.89063 95.2344,7.45313 L98.75,7.45313 M105.688,5.21875 L105.688,6.14063 C105.417,5.98438 105.141,5.86719 104.859,5.78906 C104.578,5.71094 104.292,5.67188 104,5.67188 C103.365,5.67188 102.87,5.875 102.516,6.28125 C102.161,6.6875 101.984,7.26042 101.984,8 C101.984,8.72917 102.161,9.29688 102.516,9.70313 C102.87,10.1094 103.365,10.3125 104,10.3125 C104.292,10.3125 104.578,10.276 104.859,10.2031 C105.141,10.1302 105.417,10.0156 105.688,9.85938 L105.688,10.7656 C105.417,10.901 105.133,11 104.836,11.0625 C104.539,11.125 104.224,11.1563 103.891,11.1563 C102.984,11.1563 102.266,10.8724 101.734,10.3047 C101.203,9.73698 100.938,8.96875 100.938,8 C100.938,7.02083 101.206,6.25 101.742,5.6875 C102.279,5.125 103.016,4.84375 103.953,4.84375 C104.266,4.84375 104.565,4.875 104.852,4.9375 C105.138,5 105.417,5.09375 105.688,5.21875 M107.406,4.98438 L108.406,4.98438 L108.406,11 L107.406,11 L107.406,4.98438 M107.406,2.64063 L108.406,2.64063 L108.406,3.89063 L107.406,3.89063 L107.406,2.64063 M113.5,2.64063 L113.5,3.46875 L112.563,3.46875 C112.208,3.46875 111.961,3.53906 111.82,3.67969 C111.68,3.82031 111.609,4.07813 111.609,4.45313 L111.609,4.98438 L113.234,4.98438 L113.234,5.75 L111.609,5.75 L111.609,11 L110.625,11 L110.625,5.75 L109.672,5.75 L109.672,4.98438 L110.625,4.98438 L110.625,4.5625 C110.625,3.89583 110.779,3.40885 111.086,3.10156 C111.393,2.79427 111.885,2.64063 112.563,2.64063 L113.5,2.64063 M114.313,4.98438 L115.313,4.98438 L115.313,11 L114.313,11 L114.313,4.98438 M114.313,2.64063 L115.313,2.64063 L115.313,3.89063 L114.313,3.89063 L114.313,2.64063 M121.688,5.21875 L121.688,6.14063 C121.417,5.98438 121.141,5.86719 120.859,5.78906 C120.578,5.71094 120.292,5.67188 120,5.67188 C119.365,5.67188 118.87,5.875 118.516,6.28125 C118.161,6.6875 117.984,7.26042 117.984,8 C117.984,8.72917 118.161,9.29688 118.516,9.70313 C118.87,10.1094 119.365,10.3125 120,10.3125 C120.292,10.3125 120.578,10.276 120.859,10.2031 C121.141,10.1302 121.417,10.0156 121.688,9.85938 L121.688,10.7656 C121.417,10.901 121.133,11 120.836,11.0625 C120.539,11.125 120.224,11.1563 119.891,11.1563 C118.984,11.1563 118.266,10.8724 117.734,10.3047 C117.203,9.73698 116.938,8.96875 116.938,8 C116.938,7.02083 117.206,6.25 117.742,5.6875 C118.279,5.125 119.016,4.84375 119.953,4.84375 C120.266,4.84375 120.565,4.875 120.852,4.9375 C121.138,5 121.417,5.09375 121.688,5.21875 M125.172,2.98438 L126.078,2.98438 L123.281,12.0156 L122.375,12.0156 L125.172,2.98438 M132.109,7.375 L132.109,11 L131.125,11 L131.125,7.40625 C131.125,6.83333 131.016,6.40625 130.797,6.125 C130.578,5.84375 130.245,5.70313 129.797,5.70313 C129.266,5.70313 128.846,5.8724 128.539,6.21094 C128.232,6.54948 128.078,7.01042 128.078,7.59375 L128.078,11 L127.078,11 L127.078,4.98438 L128.078,4.98438 L128.078,5.92188 C128.307,5.55729 128.583,5.28646 128.906,5.10938 C129.229,4.93229 129.599,4.84375 130.016,4.84375 C130.703,4.84375 131.224,5.05729 131.578,5.48438 C131.932,5.91146 132.109,6.54167 132.109,7.375 M133.984,8.625 L133.984,4.98438 L134.969,4.98438 L134.969,8.59375 C134.969,9.15625 135.081,9.58073 135.305,9.86719 C135.529,10.1536 135.859,10.2969 136.297,10.2969 C136.839,10.2969 137.263,10.1276 137.57,9.78906 C137.878,9.45052 138.031,8.98438 138.031,8.39063 L138.031,4.98438 L139.016,4.98438 L139.016,11 L138.031,11 L138.031,10.0781 C137.792,10.4427 137.513,10.7135 137.195,10.8906 C136.878,11.0677 136.51,11.1563 136.094,11.1563 C135.406,11.1563 134.883,10.9401 134.523,10.5078 C134.164,10.0755 133.984,9.44792 133.984,8.625 M145.734,6.14063 C145.984,5.69271 146.281,5.36458 146.625,5.15625 C146.969,4.94792 147.375,4.84375 147.844,4.84375 C148.469,4.84375 148.951,5.0625 149.289,5.5 C149.628,5.9375 149.797,6.5625 149.797,7.375 L149.797,11 L148.797,11 L148.797,7.40625 C148.797,6.82292 148.695,6.39323 148.492,6.11719 C148.289,5.84115 147.979,5.70313 147.563,5.70313 C147.052,5.70313 146.648,5.8724 146.352,6.21094 C146.055,6.54948 145.906,7.01042 145.906,7.59375 L145.906,11 L144.906,11 L144.906,7.40625 C144.906,6.82292 144.805,6.39323 144.602,6.11719 C144.398,5.84115 144.083,5.70313 143.656,5.70313 C143.156,5.70313 142.758,5.8724 142.461,6.21094 C142.164,6.54948 142.016,7.01042 142.016,7.59375 L142.016,11 L141.016,11 L141.016,4.98438 L142.016,4.98438 L142.016,5.92188 C142.234,5.54688 142.503,5.27344 142.82,5.10156 C143.138,4.92969 143.51,4.84375 143.938,4.84375 C144.375,4.84375 144.747,4.95313 145.055,5.17188 C145.362,5.39063 145.589,5.71354 145.734,6.14063 M156.078,8 C156.078,7.27083 155.927,6.70052 155.625,6.28906 C155.323,5.8776 154.911,5.67188 154.391,5.67188 C153.87,5.67188 153.461,5.8776 153.164,6.28906 C152.867,6.70052 152.719,7.27083 152.719,8 C152.719,8.72917 152.867,9.29948 153.164,9.71094 C153.461,10.1224 153.87,10.3281 154.391,10.3281 C154.911,10.3281 155.323,10.1224 155.625,9.71094 C155.927,9.29948 156.078,8.72917 156.078,8 M152.719,5.89063 C152.917,5.53646 153.174,5.27344 153.492,5.10156 C153.81,4.92969 154.193,4.84375 154.641,4.84375 C155.37,4.84375 155.961,5.13281 156.414,5.71094 C156.867,6.28906 157.094,7.05208 157.094,8 C157.094,8.94792 156.867,9.71094 156.414,10.2891 C155.961,10.8672 155.37,11.1563 154.641,11.1563 C154.193,11.1563 153.81,11.0703 153.492,10.8984 C153.174,10.7266 152.917,10.4583 152.719,10.0938 L152.719,11 L151.719,11 L151.719,2.64063 L152.719,2.64063 L152.719,5.89063 M163.875,7.75 L163.875,8.23438 L159.328,8.23438 C159.37,8.91146 159.573,9.42708 159.938,9.78125 C160.302,10.1354 160.813,10.3125 161.469,10.3125 C161.854,10.3125 162.224,10.2656 162.578,10.1719 C162.932,10.0781 163.286,9.94271 163.641,9.76563 L163.641,10.6875 C163.286,10.8438 162.922,10.9609 162.547,11.0391 C162.172,11.1172 161.797,11.1563 161.422,11.1563 C160.453,11.1563 159.69,10.8776 159.133,10.3203 C158.576,9.76302 158.297,9.00521 158.297,8.04688 C158.297,7.06771 158.563,6.28906 159.094,5.71094 C159.625,5.13281 160.344,4.84375 161.25,4.84375 C162.052,4.84375 162.69,5.10417 163.164,5.625 C163.638,6.14583 163.875,6.85417 163.875,7.75 M162.875,7.45313 C162.875,6.91146 162.727,6.47917 162.43,6.15625 C162.133,5.83333 161.74,5.67188 161.25,5.67188 C160.698,5.67188 160.258,5.82813 159.93,6.14063 C159.602,6.45313 159.411,6.89063 159.359,7.45313 L162.875,7.45313 M168.969,5.90625 C168.865,5.84375 168.747,5.79688 168.617,5.76563 C168.487,5.73438 168.344,5.71875 168.188,5.71875 C167.625,5.71875 167.195,5.90104 166.898,6.26563 C166.602,6.63021 166.453,7.15104 166.453,7.82813 L166.453,11 L165.453,11 L165.453,4.98438 L166.453,4.98438 L166.453,5.92188 C166.651,5.55729 166.917,5.28646 167.25,5.10938 C167.583,4.93229 167.99,4.84375 168.469,4.84375 C168.542,4.84375 168.617,4.84635 168.695,4.85156 C168.773,4.85677 168.865,4.86979 168.969,4.89063 L168.969,5.90625"/>
</g>

<g fill="none" stroke="#000000" stroke-opacity="1" stroke-width="1" stroke-linecap="square" stroke-linejoin="bevel" transform="matrix(2.00012,0,0,2.00012,294.031,43.0025)"
font-family="sans" font-size="11" font-weight="100" font-style="normal" 
>
</g>

<g fill="none" stroke="#000000" stroke-opacity="1" stroke-width="1" stroke-linecap="square" stroke-linejoin="bevel" transform="matrix(2.00012,0,0,2.00012,294.031,43.0025)"
font-family="Ubuntu" font-size="11" font-weight="400" font-style="normal" 
>
</g>

<g fill="none" stroke="#000000" stroke-opacity="1" stroke-width="1" stroke-linecap="square" stroke-linejoin="bevel" transform="matrix(2.00012,0,0,2.00012,0.00240014,87.9471)"
font-family="Ubuntu" font-size="11" font-weight="400" font-style="normal" 
>
</g>

<g fill="#000000" fill-opacity="1" stroke="#000000" stroke-opacity="1" stroke-width="1" stroke-linecap="square" stroke-linejoin="round" transform="matrix(2.00012,0,0,2.00012,0.00240014,87.9471)"
font-family="Ubuntu" font-size="11" font-weight="400" font-style="normal" 
>
<path vector-effect="none" fill-rule="evenodd" d="M125.74,-10.909 L126.446,-14.339 L115.94,-12.926 L125.034,-7.479 L125.74,-10.909"/>
</g>

<g fill="none" stroke="#000000" stroke-opacity="1" stroke-width="1" stroke-linecap="square" stroke-linejoin="bevel" transform="matrix(2.00012,0,0,2.00012,0.00240014,87.9471)"
font-family="Ubuntu" font-size="11" font-weight="400" font-style="normal" 
>
</g>

<g fill="none" stroke="#000000" stroke-opacity="1" stroke-width="1" stroke-linecap="square" stroke-linejoin="bevel" transform="matrix(1,0,0,1,0,0)"
font-family="Ubuntu" font-size="11" font-weight="400" font-style="normal" 
>
</g>
</g>
</svg>
